<?xml version="1.0" encoding="utf-8" standalone="no"?>
<!DOCTYPE svg PUBLIC "-//W3C//DTD SVG 1.1//EN"
  "http://www.w3.org/Graphics/SVG/1.1/DTD/svg11.dtd">
<svg xmlns:xlink="http://www.w3.org/1999/xlink" width="690.95952pt" height="262.55952pt" viewBox="0 0 690.95952 262.55952" xmlns="http://www.w3.org/2000/svg" version="1.1">
 <metadata>
  <rdf:RDF xmlns:dc="http://purl.org/dc/elements/1.1/" xmlns:cc="http://creativecommons.org/ns#" xmlns:rdf="http://www.w3.org/1999/02/22-rdf-syntax-ns#">
   <cc:Work>
    <dc:type rdf:resource="http://purl.org/dc/dcmitype/StillImage"/>
    <dc:date>2026-09-29T23:18:05.153167</dc:date>
    <dc:format>image/svg+xml</dc:format>
    <dc:creator>
     <cc:Agent>
      <dc:title>Matplotlib v3.7.5, https://matplotlib.org/</dc:title>
     </cc:Agent>
    </dc:creator>
   </cc:Work>
  </rdf:RDF>
 </metadata>
 <defs>
  <style type="text/css">*{stroke-linejoin: round; stroke-linecap: butt}</style>
 </defs>
 <g id="figure_1">
  <g id="patch_1">
   <path d="M 0 262.55952
L 690.95952 262.55952
L 690.95952 0
L 0 0
z
" style="fill: #ffffff"/>
  </g>
  <g id="axes_1">
   <g id="patch_2">
    <path d="M 51.74 226.00452
L 342.16776 226.00452
L 342.16776 21.657656
L 51.74 21.657656
z
" style="fill: #ffffff"/>
   </g>
   <g id="matplotlib.axis_1">
    <g id="xtick_1">
     <g id="line2d_1"/>
     <g id="text_1">
      <!-- 不限制总缓冲 -->
      <g style="fill: #54655e" transform="translate(75.945468 242.759832) scale(0.11 -0.11)">
       <defs>
        <path id="SourceHanSansSC-Regular-4e0d" d="M 3936 3366
L 3578 3059
C 4339 2547 5299 1792 5754 1299
L 6144 1670
C 5664 2163 4691 2880 3936 3366
z
M 2938 -499
L 3456 -499
L 3456 3738
C 3622 3968 3770 4198 3904 4435
L 5958 4435
L 5958 4928
L 442 4928
L 442 4435
L 3290 4435
C 2656 3341 1555 2259 282 1632
C 384 1523 531 1331 608 1210
C 1498 1683 2291 2336 2938 3085
L 2938 -499
z
" transform="scale(0.015625)"/>
        <path id="SourceHanSansSC-Regular-9650" d="M 2125 5114
L 589 5114
L 589 -499
L 1018 -499
L 1018 4678
L 1946 4678
C 1811 4250 1626 3686 1440 3232
C 1901 2720 2016 2278 2016 1926
C 2016 1728 1978 1549 1882 1478
C 1824 1446 1754 1427 1683 1421
C 1581 1414 1453 1421 1306 1427
C 1382 1306 1427 1120 1427 1005
C 1568 998 1734 998 1856 1018
C 1990 1030 2106 1069 2189 1133
C 2374 1267 2445 1536 2445 1882
C 2445 2285 2336 2746 1875 3283
C 2086 3795 2323 4422 2509 4947
L 2195 5133
L 2125 5114
z
M 5190 3898
L 3302 3898
L 3302 4672
L 5190 4672
L 5190 3898
z
M 5190 3494
L 5190 2701
L 3302 2701
L 3302 3494
L 5190 3494
z
M 6035 1734
L 5722 2074
C 5466 1837 5062 1536 4723 1318
C 4563 1606 4435 1933 4339 2278
L 5651 2278
L 5651 5094
L 2829 5094
L 2829 339
C 2829 70 2694 -58 2598 -115
C 2669 -211 2771 -403 2810 -512
C 2931 -429 3136 -358 4454 0
C 4442 102 4429 301 4435 435
L 3302 160
L 3302 2278
L 3917 2278
C 4237 1005 4845 19 5850 -461
C 5920 -333 6067 -141 6176 -51
C 5664 160 5248 518 4934 973
C 5286 1184 5709 1466 6035 1734
z
" transform="scale(0.015625)"/>
        <path id="SourceHanSansSC-Regular-5236" d="M 4781 4787
L 4326 4787
L 4326 1242
L 4781 1242
L 4781 4787
z
M 5939 147
L 5939 5312
L 5466 5312
L 5466 147
C 5466 45 5434 13 5338 13
C 5216 6 4858 0 4480 13
C 4544 -128 4614 -352 4640 -486
C 5120 -486 5472 -474 5664 -397
C 5862 -307 5939 -166 5939 147
z
M 1357 5133
L 909 5222
C 774 4602 557 3962 262 3533
C 378 3488 589 3405 691 3354
C 800 3539 909 3763 1011 4013
L 1850 4013
L 1850 3341
L 288 3341
L 288 2899
L 1850 2899
L 1850 2246
L 582 2246
L 582 13
L 1018 13
L 1018 1811
L 1850 1811
L 1850 -506
L 2310 -506
L 2310 1811
L 3200 1811
L 3200 499
C 3200 435 3181 410 3110 410
C 3040 403 2829 403 2560 416
C 2618 294 2675 122 2694 -6
C 3046 -6 3296 0 3443 77
C 3603 147 3642 269 3642 486
L 3642 2246
L 2310 2246
L 2310 2899
L 3866 2899
L 3866 3341
L 2310 3341
L 2310 4013
L 3616 4013
L 3616 4454
L 2310 4454
L 2310 5350
L 1850 5350
L 1850 4454
L 1171 4454
C 1242 4672 1306 4902 1357 5133
z
" transform="scale(0.015625)"/>
        <path id="SourceHanSansSC-Regular-603b" d="M 5222 1581
L 4858 1370
C 5222 928 5600 333 5741 -58
L 6131 186
C 5990 582 5600 1152 5222 1581
z
M 2976 1990
L 2637 1722
C 3059 1427 3546 979 3782 666
L 4141 973
C 3898 1274 3405 1709 2976 1990
z
M 2304 224
L 2304 1542
L 1798 1542
L 1798 218
C 1798 -301 1997 -442 2758 -442
C 2912 -442 4032 -442 4198 -442
C 4787 -442 4947 -256 5018 474
C 4877 506 4672 576 4563 646
C 4525 83 4480 -6 4160 -6
C 3910 -6 2970 -6 2784 -6
C 2374 -6 2304 32 2304 224
z
M 1331 1357
L 877 1440
C 762 947 538 384 275 58
L 717 -154
C 1005 230 1216 832 1331 1357
z
M 1696 2496
L 1696 3629
L 4717 3629
L 4717 2496
L 1696 2496
z
M 5248 4083
L 4205 4083
C 4429 4416 4666 4806 4870 5171
L 4378 5370
C 4211 4986 3930 4454 3680 4083
L 2368 4083
L 2746 4275
C 2630 4576 2336 5018 2054 5350
L 1645 5158
C 1914 4832 2182 4384 2291 4083
L 1190 4083
L 1190 2042
L 5248 2042
L 5248 4083
z
" transform="scale(0.015625)"/>
        <path id="SourceHanSansSC-Regular-7f13" d="M 224 333
L 333 -141
C 902 64 1658 326 2387 582
L 2310 966
C 1530 723 742 480 224 333
z
M 4218 4659
L 3834 4595
C 3910 4314 3981 3942 4006 3725
L 4416 3821
C 4384 4026 4301 4384 4218 4659
z
M 5907 4973
L 5626 5331
C 4877 5165 3514 5050 2400 5005
C 2445 4909 2502 4742 2509 4640
C 3642 4672 5030 4781 5907 4973
z
M 403 1178
C 538 1254 755 1312 2349 1632
C 2342 1734 2336 1914 2342 2048
L 1082 1818
C 1581 2381 2074 3072 2483 3770
L 2080 4013
C 1958 3776 1818 3539 1677 3315
L 864 3245
C 1242 3795 1619 4499 1901 5184
L 1434 5370
C 1171 4602 710 3782 563 3571
C 429 3354 314 3206 198 3181
C 256 3053 333 2816 358 2714
C 454 2758 608 2797 1395 2886
C 1114 2483 858 2163 742 2035
C 544 1805 390 1645 256 1613
C 307 1498 378 1274 403 1178
z
M 3059 4563
L 2688 4461
C 2803 4205 2931 3859 2989 3648
L 3379 3776
C 3322 3981 3187 4314 3059 4563
z
M 5325 1901
L 3546 1901
L 3629 2336
L 6093 2336
L 6093 2746
L 3686 2746
L 3738 3251
L 6016 3251
L 6016 3648
L 5248 3648
C 5440 3930 5651 4269 5830 4582
L 5376 4730
C 5242 4410 4992 3955 4787 3648
L 2496 3648
L 2496 3251
L 3270 3251
L 3226 2746
L 2240 2746
L 2240 2336
L 3168 2336
C 3014 1408 2675 403 1811 -166
C 1920 -243 2067 -390 2131 -499
C 2726 -83 3098 506 3328 1146
C 3533 838 3776 563 4064 333
C 3686 102 3245 -51 2765 -160
C 2848 -243 2982 -422 3027 -525
C 3546 -397 4019 -205 4429 70
C 4858 -205 5370 -410 5933 -531
C 5997 -403 6131 -218 6234 -122
C 5702 -26 5216 141 4800 365
C 5190 723 5491 1190 5683 1798
L 5414 1920
L 5325 1901
z
M 3578 1530
L 5120 1530
C 4960 1152 4723 845 4435 595
C 4070 858 3782 1171 3578 1530
z
" transform="scale(0.015625)"/>
        <path id="SourceHanSansSC-Regular-51b2" d="M 678 4992
L 339 4672
C 736 4371 1203 3930 1421 3629
L 1786 3994
C 1562 4288 1069 4704 678 4992
z
M 237 410
L 678 109
C 1043 704 1472 1504 1805 2195
L 1421 2483
C 1062 1754 576 902 237 410
z
M 4256 5370
L 3776 5370
L 3776 4179
L 2157 4179
L 2157 1274
L 2630 1274
L 2630 1677
L 3776 1677
L 3776 -512
L 4256 -512
L 4256 1677
L 5472 1677
L 5472 1299
L 5958 1299
L 5958 4179
L 4256 4179
L 4256 5370
z
M 3776 3699
L 3776 2157
L 2630 2157
L 2630 3699
L 3776 3699
z
M 4256 3699
L 5472 3699
L 5472 2157
L 4256 2157
L 4256 3699
z
" transform="scale(0.015625)"/>
       </defs>
       <use xlink:href="#SourceHanSansSC-Regular-4e0d"/>
       <use xlink:href="#SourceHanSansSC-Regular-9650" x="99.999985"/>
       <use xlink:href="#SourceHanSansSC-Regular-5236" x="199.999969"/>
       <use xlink:href="#SourceHanSansSC-Regular-603b" x="299.999954"/>
       <use xlink:href="#SourceHanSansSC-Regular-7f13" x="399.999939"/>
       <use xlink:href="#SourceHanSansSC-Regular-51b2" x="499.999924"/>
      </g>
     </g>
    </g>
    <g id="xtick_2">
     <g id="line2d_2"/>
     <g id="text_2">
      <!-- 总缓冲 32 组 -->
      <g style="fill: #54655e" transform="translate(254.392605 242.759832) scale(0.11 -0.11)">
       <defs>
        <path id="SourceHanSansSC-Regular-20" transform="scale(0.015625)"/>
        <path id="SourceHanSansSC-Regular-33" d="M 1683 -83
C 2522 -83 3194 416 3194 1254
C 3194 1901 2752 2310 2202 2445
L 2202 2477
C 2701 2650 3034 3034 3034 3603
C 3034 4346 2458 4774 1664 4774
C 1126 4774 710 4538 358 4218
L 672 3846
C 941 4115 1267 4301 1645 4301
C 2138 4301 2438 4006 2438 3558
C 2438 3053 2112 2662 1139 2662
L 1139 2214
C 2227 2214 2598 1843 2598 1274
C 2598 736 2208 403 1645 403
C 1114 403 762 659 486 941
L 186 563
C 493 224 954 -83 1683 -83
z
" transform="scale(0.015625)"/>
        <path id="SourceHanSansSC-Regular-32" d="M 282 0
L 3232 0
L 3232 506
L 1894 506
C 1658 506 1376 480 1126 461
C 2240 1504 3008 2445 3008 3398
C 3008 4230 2477 4774 1638 4774
C 1050 4774 646 4493 269 4077
L 595 3757
C 858 4070 1184 4301 1568 4301
C 2150 4301 2432 3910 2432 3373
C 2432 2573 1773 1632 282 371
L 282 0
z
" transform="scale(0.015625)"/>
        <path id="SourceHanSansSC-Regular-7ec4" d="M 307 371
L 403 -90
C 1005 64 1805 269 2566 467
L 2522 877
C 1702 678 858 486 307 371
z
M 5581 5056
L 3078 5056
L 3078 70
L 2432 70
L 2432 -371
L 6138 -371
L 6138 70
L 5581 70
L 5581 5056
z
M 3539 70
L 3539 1325
L 5107 1325
L 5107 70
L 3539 70
z
M 3539 3424
L 3539 4614
L 5107 4614
L 5107 3424
L 3539 3424
z
M 3539 2982
L 5107 2982
L 5107 1754
L 3539 1754
L 3539 2982
z
M 467 1165
C 602 1242 826 1306 2566 1658
C 2554 1754 2560 1926 2573 2054
L 1165 1798
C 1696 2368 2214 3072 2656 3782
L 2272 4019
C 2138 3782 1990 3552 1843 3328
L 915 3232
C 1325 3782 1722 4486 2035 5171
L 1594 5376
C 1306 4602 800 3763 653 3552
C 506 3334 384 3181 269 3155
C 320 3027 397 2803 422 2707
C 518 2752 672 2790 1549 2906
C 1235 2483 960 2144 832 2016
C 621 1779 454 1619 314 1594
C 371 1478 442 1261 467 1165
z
" transform="scale(0.015625)"/>
       </defs>
       <use xlink:href="#SourceHanSansSC-Regular-603b"/>
       <use xlink:href="#SourceHanSansSC-Regular-7f13" x="99.999985"/>
       <use xlink:href="#SourceHanSansSC-Regular-51b2" x="199.999969"/>
       <use xlink:href="#SourceHanSansSC-Regular-20" x="299.999954"/>
       <use xlink:href="#SourceHanSansSC-Regular-33" x="322.399948"/>
       <use xlink:href="#SourceHanSansSC-Regular-32" x="377.899933"/>
       <use xlink:href="#SourceHanSansSC-Regular-20" x="433.399918"/>
       <use xlink:href="#SourceHanSansSC-Regular-7ec4" x="455.799911"/>
      </g>
     </g>
    </g>
   </g>
   <g id="matplotlib.axis_2">
    <g id="ytick_1">
     <g id="line2d_3">
      <path d="M 51.74 226.00452
L 342.16776 226.00452
" clip-path="url(#p3d7b3c296a)" style="fill: none; stroke: #e8ece7; stroke-width: 0.8; stroke-linecap: square"/>
     </g>
     <g id="line2d_4"/>
     <g id="text_3">
      <!-- 0 -->
      <g style="fill: #54655e" transform="translate(37.635 230.382176) scale(0.11 -0.11)">
       <defs>
        <path id="SourceHanSansSC-Regular-30" d="M 1779 -83
C 2669 -83 3238 723 3238 2362
C 3238 3987 2669 4774 1779 4774
C 883 4774 320 3987 320 2362
C 320 723 883 -83 1779 -83
z
M 1779 390
C 1248 390 883 986 883 2362
C 883 3731 1248 4314 1779 4314
C 2310 4314 2675 3731 2675 2362
C 2675 986 2310 390 1779 390
z
" transform="scale(0.015625)"/>
       </defs>
       <use xlink:href="#SourceHanSansSC-Regular-30"/>
      </g>
     </g>
    </g>
    <g id="ytick_2">
     <g id="line2d_5">
      <path d="M 51.74 188.850545
L 342.16776 188.850545
" clip-path="url(#p3d7b3c296a)" style="fill: none; stroke: #e8ece7; stroke-width: 0.8; stroke-linecap: square"/>
     </g>
     <g id="line2d_6"/>
     <g id="text_4">
      <!-- 2 -->
      <g style="fill: #54655e" transform="translate(37.635 193.228201) scale(0.11 -0.11)">
       <use xlink:href="#SourceHanSansSC-Regular-32"/>
      </g>
     </g>
    </g>
    <g id="ytick_3">
     <g id="line2d_7">
      <path d="M 51.74 151.69657
L 342.16776 151.69657
" clip-path="url(#p3d7b3c296a)" style="fill: none; stroke: #e8ece7; stroke-width: 0.8; stroke-linecap: square"/>
     </g>
     <g id="line2d_8"/>
     <g id="text_5">
      <!-- 4 -->
      <g style="fill: #54655e" transform="translate(37.635 156.074226) scale(0.11 -0.11)">
       <defs>
        <path id="SourceHanSansSC-Regular-34" d="M 2176 0
L 2726 0
L 2726 1293
L 3354 1293
L 3354 1760
L 2726 1760
L 2726 4691
L 2080 4691
L 128 1677
L 128 1293
L 2176 1293
L 2176 0
z
M 2176 1760
L 736 1760
L 1805 3360
C 1939 3590 2067 3827 2182 4051
L 2208 4051
C 2195 3814 2176 3430 2176 3200
L 2176 1760
z
" transform="scale(0.015625)"/>
       </defs>
       <use xlink:href="#SourceHanSansSC-Regular-34"/>
      </g>
     </g>
    </g>
    <g id="ytick_4">
     <g id="line2d_9">
      <path d="M 51.74 114.542594
L 342.16776 114.542594
" clip-path="url(#p3d7b3c296a)" style="fill: none; stroke: #e8ece7; stroke-width: 0.8; stroke-linecap: square"/>
     </g>
     <g id="line2d_10"/>
     <g id="text_6">
      <!-- 6 -->
      <g style="fill: #54655e" transform="translate(37.635 118.920251) scale(0.11 -0.11)">
       <defs>
        <path id="SourceHanSansSC-Regular-36" d="M 1926 -83
C 2656 -83 3277 531 3277 1440
C 3277 2426 2765 2912 1971 2912
C 1606 2912 1197 2701 909 2349
C 934 3802 1466 4294 2118 4294
C 2400 4294 2682 4154 2861 3936
L 3194 4294
C 2931 4576 2579 4774 2093 4774
C 1184 4774 358 4077 358 2240
C 358 691 1030 -83 1926 -83
z
M 922 1882
C 1229 2317 1587 2477 1875 2477
C 2445 2477 2720 2074 2720 1440
C 2720 800 2374 378 1926 378
C 1338 378 986 909 922 1882
z
" transform="scale(0.015625)"/>
       </defs>
       <use xlink:href="#SourceHanSansSC-Regular-36"/>
      </g>
     </g>
    </g>
    <g id="ytick_5">
     <g id="line2d_11">
      <path d="M 51.74 77.388619
L 342.16776 77.388619
" clip-path="url(#p3d7b3c296a)" style="fill: none; stroke: #e8ece7; stroke-width: 0.8; stroke-linecap: square"/>
     </g>
     <g id="line2d_12"/>
     <g id="text_7">
      <!-- 8 -->
      <g style="fill: #54655e" transform="translate(37.635 81.766275) scale(0.11 -0.11)">
       <defs>
        <path id="SourceHanSansSC-Regular-38" d="M 1792 -83
C 2669 -83 3258 448 3258 1126
C 3258 1773 2880 2125 2470 2362
L 2470 2394
C 2746 2611 3091 3034 3091 3526
C 3091 4250 2605 4762 1805 4762
C 1075 4762 518 4282 518 3571
C 518 3078 813 2726 1152 2490
L 1152 2464
C 723 2234 294 1792 294 1165
C 294 442 922 -83 1792 -83
z
M 2112 2547
C 1555 2765 1050 3014 1050 3571
C 1050 4026 1363 4326 1798 4326
C 2298 4326 2592 3962 2592 3494
C 2592 3149 2426 2829 2112 2547
z
M 1798 352
C 1235 352 813 717 813 1216
C 813 1664 1082 2035 1459 2278
C 2125 2010 2701 1779 2701 1146
C 2701 678 2342 352 1798 352
z
" transform="scale(0.015625)"/>
       </defs>
       <use xlink:href="#SourceHanSansSC-Regular-38"/>
      </g>
     </g>
    </g>
    <g id="ytick_6">
     <g id="line2d_13">
      <path d="M 51.74 40.234644
L 342.16776 40.234644
" clip-path="url(#p3d7b3c296a)" style="fill: none; stroke: #e8ece7; stroke-width: 0.8; stroke-linecap: square"/>
     </g>
     <g id="line2d_14"/>
     <g id="text_8">
      <!-- 10 -->
      <g style="fill: #54655e" transform="translate(31.53 44.6123) scale(0.11 -0.11)">
       <defs>
        <path id="SourceHanSansSC-Regular-31" d="M 563 0
L 3136 0
L 3136 486
L 2195 486
L 2195 4691
L 1747 4691
C 1491 4544 1190 4435 774 4358
L 774 3987
L 1613 3987
L 1613 486
L 563 486
L 563 0
z
" transform="scale(0.015625)"/>
       </defs>
       <use xlink:href="#SourceHanSansSC-Regular-31"/>
       <use xlink:href="#SourceHanSansSC-Regular-30" x="55.499985"/>
      </g>
     </g>
    </g>
    <g id="text_9">
     <!-- 实测平均滞后（更新数） -->
     <g style="fill: #54655e" transform="translate(25.239375 178.831088) rotate(-90) scale(0.1 -0.1)">
      <defs>
       <path id="SourceHanSansSC-Regular-5b9e" d="M 3674 1037
L 3443 685
C 4294 365 5146 -83 5664 -474
L 5958 -102
C 5427 282 4531 723 3674 1037
z
M 1824 3872
L 1536 3565
C 1882 3360 2291 3040 2477 2816
L 2784 3168
C 2586 3392 2170 3686 1824 3872
z
M 1184 2886
L 896 2566
C 1261 2368 1690 2054 1894 1824
L 2189 2182
C 1978 2406 1542 2701 1184 2886
z
M 5837 4646
L 3642 4646
C 3552 4870 3373 5178 3219 5421
L 2746 5274
C 2861 5082 2982 4851 3072 4646
L 576 4646
L 576 3347
L 1056 3347
L 1056 4198
L 5344 4198
L 5344 3347
L 5837 3347
L 5837 4646
z
M 5984 1638
L 3462 1638
C 3648 2259 3693 3002 3718 3878
L 3219 3878
C 3194 2970 3155 2234 2950 1638
L 454 1638
L 454 1222
L 2765 1222
C 2406 602 1747 186 518 -70
C 621 -179 742 -365 794 -493
C 2234 -160 2950 403 3315 1222
L 5984 1222
L 5984 1638
z
" transform="scale(0.015625)"/>
       <path id="SourceHanSansSC-Regular-6d4b" d="M 3411 768
L 3110 589
C 3430 269 3814 -179 3994 -467
L 4307 -243
C 4122 26 3731 461 3411 768
z
M 4154 5005
L 1997 5005
L 1997 986
L 2374 986
L 2374 4634
L 3763 4634
L 3763 1005
L 4154 1005
L 4154 5005
z
M 5946 45
L 5946 5293
L 5549 5293
L 5549 45
C 5549 -51 5510 -83 5421 -83
C 5331 -90 5030 -90 4691 -83
C 4749 -198 4813 -384 4832 -486
C 5280 -493 5555 -480 5722 -410
C 5882 -339 5946 -218 5946 45
z
M 5056 4800
L 4672 4800
L 4672 966
L 5056 966
L 5056 4800
z
M 3226 1907
L 3226 4179
L 2854 4179
L 2854 1914
C 2854 1139 2726 339 1658 -205
C 1728 -262 1850 -422 1888 -499
C 3046 83 3226 1050 3226 1907
z
M 806 5306
L 518 4966
C 877 4768 1338 4461 1555 4262
L 1850 4653
C 1619 4838 1152 5120 806 5306
z
M 518 3584
L 243 3238
C 595 3040 1062 2752 1293 2560
L 1581 2944
C 1338 3130 864 3405 518 3584
z
M 371 -173
L 806 -429
C 1075 160 1395 947 1626 1619
L 1242 1869
C 986 1152 627 320 371 -173
z
" transform="scale(0.015625)"/>
       <path id="SourceHanSansSC-Regular-5e73" d="M 1549 4160
L 1114 4032
C 1363 3558 1613 2938 1702 2554
L 2157 2714
C 2067 3085 1805 3699 1549 4160
z
M 5338 4051
L 4832 4192
C 4672 3731 4378 3072 4141 2669
L 4550 2534
C 4800 2918 5101 3533 5338 4051
z
M 6074 2227
L 3437 2227
L 3437 4467
L 5715 4467
L 5715 4947
L 672 4947
L 672 4467
L 2938 4467
L 2938 2227
L 333 2227
L 333 1747
L 2938 1747
L 2938 -506
L 3437 -506
L 3437 1747
L 6074 1747
L 6074 2227
z
" transform="scale(0.015625)"/>
       <path id="SourceHanSansSC-Regular-5747" d="M 2406 966
L 2586 506
C 3219 730 4077 1030 4877 1325
L 4794 1754
C 3923 1453 3002 1146 2406 966
z
M 3315 3302
L 2970 3034
C 3386 2746 3859 2317 4077 2016
L 4442 2323
C 4218 2624 3731 3027 3315 3302
z
M 3731 5274
L 3245 5376
C 3053 4640 2765 3910 2387 3347
C 2291 3213 2195 3085 2093 2970
C 2214 2906 2426 2752 2515 2675
C 2771 2995 3014 3405 3226 3866
L 5498 3866
C 5434 1248 5357 269 5158 58
C 5088 -26 5018 -51 4890 -45
C 4736 -45 4346 -45 3923 -13
C 4013 -147 4070 -352 4077 -493
C 4467 -512 4858 -525 5088 -499
C 5312 -474 5459 -422 5600 -230
C 5843 77 5914 1094 5984 4064
C 5984 4134 5984 4320 5984 4320
L 3418 4320
C 3539 4627 3642 4947 3731 5274
z
M 218 986
L 352 493
C 966 698 1773 960 2528 1222
L 2458 1670
L 1600 1402
L 1600 3347
L 2387 3347
L 2387 3808
L 1600 3808
L 1600 5286
L 1133 5286
L 1133 3808
L 333 3808
L 333 3347
L 1133 3347
L 1133 1254
C 787 1146 474 1056 218 986
z
" transform="scale(0.015625)"/>
       <path id="SourceHanSansSC-Regular-6ede" d="M 794 5261
L 550 4922
C 902 4736 1325 4448 1530 4224
L 1786 4608
C 1574 4819 1152 5088 794 5261
z
M 486 3520
L 250 3168
C 608 3008 1043 2746 1261 2547
L 1504 2950
C 1280 3136 845 3379 486 3520
z
M 384 -128
L 787 -390
C 1082 192 1427 960 1677 1606
L 1318 1856
C 1043 1158 659 352 384 -128
z
M 5408 5197
L 4960 5197
L 4960 4467
L 4147 4467
L 4147 5254
L 3693 5254
L 3693 4467
L 2931 4467
L 2931 5197
L 2477 5197
L 2477 4467
L 1843 4467
L 1843 4038
L 2477 4038
L 2477 3296
L 2931 3296
L 2931 4038
L 3693 4038
L 3693 3322
L 4147 3322
L 4147 4038
L 4960 4038
L 4960 3296
L 5408 3296
L 5408 4038
L 6106 4038
L 6106 4467
L 5408 4467
L 5408 5197
z
M 5549 346
L 5549 1798
L 4147 1798
L 4147 2528
L 5542 2528
L 5542 1837
L 6003 1837
L 6003 2944
L 1894 2944
L 1894 1837
L 2336 1837
L 2336 2528
L 3686 2528
L 3686 1798
L 2342 1798
L 2342 -134
L 2784 -134
L 2784 1382
L 3686 1382
L 3686 -518
L 4147 -518
L 4147 1382
L 5101 1382
L 5101 352
C 5101 288 5082 269 5018 262
C 4941 262 4723 256 4461 269
C 4518 154 4576 -13 4589 -134
C 4960 -134 5203 -134 5350 -64
C 5510 0 5549 122 5549 346
z
" transform="scale(0.015625)"/>
       <path id="SourceHanSansSC-Regular-540e" d="M 608 -525
C 1344 518 1453 2074 1453 3142
L 6106 3142
L 6106 3603
L 1453 3603
L 1453 4397
C 2912 4493 4550 4666 5664 4928
L 5254 5318
C 4262 5075 2483 4890 966 4800
L 966 3142
C 966 2150 896 781 205 -192
C 320 -256 525 -422 608 -525
z
M 2477 262
L 2477 1779
L 5133 1779
L 5133 262
L 2477 262
z
M 5638 2227
L 1997 2227
L 1997 -518
L 2477 -518
L 2477 -186
L 5133 -186
L 5133 -506
L 5638 -506
L 5638 2227
z
" transform="scale(0.015625)"/>
       <path id="SourceHanSansSC-Regular-ff08" d="M 4448 2432
C 4448 1184 4954 166 5722 -614
L 6106 -416
C 5370 346 4915 1293 4915 2432
C 4915 3571 5370 4518 6106 5280
L 5722 5478
C 4954 4698 4448 3680 4448 2432
z
" transform="scale(0.015625)"/>
       <path id="SourceHanSansSC-Regular-66f4" d="M 1613 1523
L 1203 1357
C 1421 986 1690 691 2003 454
C 1613 230 1062 45 301 -96
C 403 -205 531 -410 589 -518
C 1421 -339 2016 -102 2445 179
C 3322 -288 4506 -429 5997 -493
C 6022 -333 6112 -128 6202 -13
C 4768 19 3661 115 2835 486
C 3168 813 3341 1184 3418 1581
L 5587 1581
L 5587 4058
L 3488 4058
L 3488 4602
L 5984 4602
L 5984 5037
L 416 5037
L 416 4602
L 2989 4602
L 2989 4058
L 998 4058
L 998 1581
L 2912 1581
C 2835 1274 2688 986 2394 730
C 2086 928 1824 1190 1613 1523
z
M 3488 2362
L 3488 2630
L 5107 2630
L 5107 1978
L 3475 1978
C 3482 2106 3488 2234 3488 2362
z
M 1459 1978
L 1459 2630
L 2989 2630
L 2989 2368
C 2989 2234 2989 2106 2976 1978
L 1459 1978
z
M 3488 3654
L 5107 3654
L 5107 3014
L 3488 3014
L 3488 3654
z
M 1459 3014
L 1459 3654
L 2989 3654
L 2989 3014
L 1459 3014
z
" transform="scale(0.015625)"/>
       <path id="SourceHanSansSC-Regular-65b0" d="M 2624 1536
L 2304 1363
C 2496 1043 2720 614 2829 326
L 3174 531
C 3072 800 2842 1216 2624 1536
z
M 1254 1408
L 864 1504
C 736 1114 525 717 269 435
C 365 384 525 262 595 198
C 851 499 1101 960 1254 1408
z
M 3987 2560
L 3987 2765
L 4960 2765
L 4960 -480
L 5427 -480
L 5427 2765
L 6131 2765
L 6131 3213
L 3987 3213
L 3987 4435
C 4659 4544 5395 4710 5926 4902
L 5536 5254
C 5075 5062 4256 4877 3539 4762
L 3539 2560
C 3539 1709 3488 608 2944 -160
C 3046 -218 3238 -365 3315 -454
C 3904 378 3987 1638 3987 2560
z
M 1805 5402
L 1370 5293
C 1466 5114 1568 4896 1651 4704
L 390 4704
L 390 4301
L 3219 4301
L 3219 4704
L 2144 4704
C 2061 4909 1926 5184 1805 5402
z
M 2048 109
L 2048 1747
L 3245 1747
L 3245 2170
L 2048 2170
L 2048 2835
L 3322 2835
L 3322 3245
L 2509 3245
C 2624 3520 2752 3859 2861 4173
L 2413 4269
C 2336 3974 2189 3539 2067 3245
L 294 3245
L 294 2835
L 1606 2835
L 1606 2170
L 320 2170
L 320 1747
L 1606 1747
L 1606 115
C 1606 51 1594 32 1530 32
C 1459 26 1261 26 1037 32
C 1094 -83 1165 -262 1178 -378
C 1485 -378 1709 -371 1856 -301
C 2003 -230 2048 -115 2048 109
z
M 1197 4256
L 806 4166
C 934 3878 1030 3494 1056 3245
L 1466 3360
C 1440 3603 1325 3981 1197 4256
z
" transform="scale(0.015625)"/>
       <path id="SourceHanSansSC-Regular-6570" d="M 3238 5075
L 2835 5254
C 2726 5005 2515 4627 2355 4403
L 2669 4250
C 2835 4467 3053 4781 3238 5075
z
M 915 5216
L 563 5075
C 730 4806 902 4461 960 4230
L 1325 4397
C 1261 4621 1088 4966 915 5216
z
M 2829 2067
L 1779 2067
L 1920 2400
L 1491 2483
C 1446 2349 1382 2208 1318 2067
L 448 2067
L 448 1664
L 1120 1664
C 979 1408 838 1171 704 979
C 1018 858 1370 698 1690 531
C 1280 237 787 32 262 -90
C 346 -179 448 -346 493 -461
C 1082 -301 1626 -51 2086 320
C 2298 192 2490 70 2637 -38
L 2944 275
C 2797 378 2611 493 2400 608
C 2739 973 3008 1421 3168 1978
L 2906 2086
L 2829 2067
z
M 2624 1664
C 2477 1331 2272 1050 2029 806
C 1786 928 1536 1050 1299 1152
C 1389 1306 1485 1485 1581 1664
L 2624 1664
z
M 2093 5382
L 1645 5382
L 1645 4186
L 320 4186
L 320 3789
L 1498 3789
C 1190 3373 698 2982 250 2784
C 346 2694 454 2528 512 2419
C 902 2630 1325 2989 1645 3366
L 1645 2586
L 2093 2586
L 2093 3462
C 2400 3232 2790 2931 2950 2784
L 3219 3136
C 3066 3245 2502 3597 2189 3789
L 3398 3789
L 3398 4186
L 2093 4186
L 2093 5382
z
M 4467 5254
L 4026 5325
C 3866 4198 3578 3123 3078 2451
C 3181 2387 3366 2234 3443 2157
C 3610 2400 3750 2682 3878 2995
C 4019 2362 4205 1786 4442 1274
C 4083 666 3584 198 2886 -141
C 2976 -237 3110 -429 3155 -531
C 3808 -179 4301 262 4678 826
C 4998 282 5395 -154 5894 -454
C 5971 -333 6112 -166 6221 -77
C 5683 211 5261 678 4934 1267
C 5274 1926 5491 2726 5632 3686
L 6067 3686
L 6067 4134
L 4243 4134
C 4333 4493 4410 4870 4467 5254
z
M 5178 3686
C 5075 2950 4922 2310 4691 1766
C 4448 2342 4269 2995 4147 3686
L 5178 3686
z
" transform="scale(0.015625)"/>
       <path id="SourceHanSansSC-Regular-ff09" d="M 1952 2432
C 1952 3680 1446 4698 678 5478
L 294 5280
C 1030 4518 1485 3571 1485 2432
C 1485 1293 1030 346 294 -416
L 678 -614
C 1446 166 1952 1184 1952 2432
z
" transform="scale(0.015625)"/>
      </defs>
      <use xlink:href="#SourceHanSansSC-Regular-5b9e"/>
      <use xlink:href="#SourceHanSansSC-Regular-6d4b" x="99.999985"/>
      <use xlink:href="#SourceHanSansSC-Regular-5e73" x="199.999969"/>
      <use xlink:href="#SourceHanSansSC-Regular-5747" x="299.999954"/>
      <use xlink:href="#SourceHanSansSC-Regular-6ede" x="399.999939"/>
      <use xlink:href="#SourceHanSansSC-Regular-540e" x="499.999924"/>
      <use xlink:href="#SourceHanSansSC-Regular-ff08" x="599.999908"/>
      <use xlink:href="#SourceHanSansSC-Regular-66f4" x="699.999893"/>
      <use xlink:href="#SourceHanSansSC-Regular-65b0" x="799.999878"/>
      <use xlink:href="#SourceHanSansSC-Regular-6570" x="899.999863"/>
      <use xlink:href="#SourceHanSansSC-Regular-ff09" x="999.999847"/>
     </g>
    </g>
   </g>
   <g id="patch_3">
    <path d="M 64.941262 226.00452
L 152.949674 226.00452
L 152.949674 72.001293
L 64.941262 72.001293
z
" clip-path="url(#p3d7b3c296a)" style="fill: #9ba5ab"/>
   </g>
   <g id="patch_4">
    <path d="M 240.958086 226.00452
L 328.966498 226.00452
L 328.966498 206.870223
L 240.958086 206.870223
z
" clip-path="url(#p3d7b3c296a)" style="fill: #246650"/>
   </g>
   <g id="text_10">
    <!-- 8.29 -->
    <g style="fill: #233b34" transform="translate(99.230624 66.001293) scale(0.1 -0.1)">
     <defs>
      <path id="SourceHanSansSC-Regular-2e" d="M 890 -83
C 1120 -83 1312 96 1312 358
C 1312 627 1120 806 890 806
C 653 806 467 627 467 358
C 467 96 653 -83 890 -83
z
" transform="scale(0.015625)"/>
      <path id="SourceHanSansSC-Regular-39" d="M 1504 -83
C 2381 -83 3206 646 3206 2547
C 3206 4038 2528 4774 1626 4774
C 896 4774 282 4166 282 3251
C 282 2285 794 1779 1574 1779
C 1965 1779 2368 2003 2656 2349
C 2611 896 2086 403 1485 403
C 1178 403 896 538 691 762
L 371 397
C 634 122 992 -83 1504 -83
z
M 2650 2842
C 2336 2394 1984 2214 1670 2214
C 1114 2214 832 2624 832 3251
C 832 3898 1178 4320 1632 4320
C 2227 4320 2586 3808 2650 2842
z
" transform="scale(0.015625)"/>
     </defs>
     <use xlink:href="#SourceHanSansSC-Regular-38"/>
     <use xlink:href="#SourceHanSansSC-Regular-2e" x="55.499985"/>
     <use xlink:href="#SourceHanSansSC-Regular-32" x="83.299973"/>
     <use xlink:href="#SourceHanSansSC-Regular-39" x="138.799957"/>
    </g>
   </g>
   <g id="text_11">
    <!-- 1.03 -->
    <g style="fill: #233b34" transform="translate(275.247448 200.870223) scale(0.1 -0.1)">
     <use xlink:href="#SourceHanSansSC-Regular-31"/>
     <use xlink:href="#SourceHanSansSC-Regular-2e" x="55.499985"/>
     <use xlink:href="#SourceHanSansSC-Regular-30" x="83.299973"/>
     <use xlink:href="#SourceHanSansSC-Regular-33" x="138.799957"/>
    </g>
   </g>
  </g>
  <g id="axes_2">
   <g id="patch_5">
    <path d="M 383.25176 226.00452
L 673.67952 226.00452
L 673.67952 21.657656
L 383.25176 21.657656
z
" style="fill: #ffffff"/>
   </g>
   <g id="matplotlib.axis_3">
    <g id="xtick_3">
     <g id="line2d_15"/>
     <g id="text_12">
      <!-- 不限制总缓冲 -->
      <g style="fill: #54655e" transform="translate(407.457228 242.759832) scale(0.11 -0.11)">
       <use xlink:href="#SourceHanSansSC-Regular-4e0d"/>
       <use xlink:href="#SourceHanSansSC-Regular-9650" x="99.999985"/>
       <use xlink:href="#SourceHanSansSC-Regular-5236" x="199.999969"/>
       <use xlink:href="#SourceHanSansSC-Regular-603b" x="299.999954"/>
       <use xlink:href="#SourceHanSansSC-Regular-7f13" x="399.999939"/>
       <use xlink:href="#SourceHanSansSC-Regular-51b2" x="499.999924"/>
      </g>
     </g>
    </g>
    <g id="xtick_4">
     <g id="line2d_16"/>
     <g id="text_13">
      <!-- 总缓冲 32 组 -->
      <g style="fill: #54655e" transform="translate(585.904365 242.759832) scale(0.11 -0.11)">
       <use xlink:href="#SourceHanSansSC-Regular-603b"/>
       <use xlink:href="#SourceHanSansSC-Regular-7f13" x="99.999985"/>
       <use xlink:href="#SourceHanSansSC-Regular-51b2" x="199.999969"/>
       <use xlink:href="#SourceHanSansSC-Regular-20" x="299.999954"/>
       <use xlink:href="#SourceHanSansSC-Regular-33" x="322.399948"/>
       <use xlink:href="#SourceHanSansSC-Regular-32" x="377.899933"/>
       <use xlink:href="#SourceHanSansSC-Regular-20" x="433.399918"/>
       <use xlink:href="#SourceHanSansSC-Regular-7ec4" x="455.799911"/>
      </g>
     </g>
    </g>
   </g>
   <g id="matplotlib.axis_4">
    <g id="ytick_7">
     <g id="line2d_17">
      <path d="M 383.25176 226.00452
L 673.67952 226.00452
" clip-path="url(#pe524c206eb)" style="fill: none; stroke: #e8ece7; stroke-width: 0.8; stroke-linecap: square"/>
     </g>
     <g id="line2d_18"/>
     <g id="text_14">
      <!-- 0 -->
      <g style="fill: #54655e" transform="translate(369.14676 230.382176) scale(0.11 -0.11)">
       <use xlink:href="#SourceHanSansSC-Regular-30"/>
      </g>
     </g>
    </g>
    <g id="ytick_8">
     <g id="line2d_19">
      <path d="M 383.25176 185.135147
L 673.67952 185.135147
" clip-path="url(#pe524c206eb)" style="fill: none; stroke: #e8ece7; stroke-width: 0.8; stroke-linecap: square"/>
     </g>
     <g id="line2d_20"/>
     <g id="text_15">
      <!-- 5 -->
      <g style="fill: #54655e" transform="translate(369.14676 189.512803) scale(0.11 -0.11)">
       <defs>
        <path id="SourceHanSansSC-Regular-35" d="M 1677 -83
C 2464 -83 3213 499 3213 1523
C 3213 2560 2573 3021 1798 3021
C 1517 3021 1306 2950 1094 2835
L 1216 4192
L 2982 4192
L 2982 4691
L 704 4691
L 550 2502
L 864 2304
C 1133 2483 1331 2579 1645 2579
C 2234 2579 2618 2182 2618 1510
C 2618 826 2176 403 1619 403
C 1075 403 730 653 467 922
L 173 538
C 493 224 941 -83 1677 -83
z
" transform="scale(0.015625)"/>
       </defs>
       <use xlink:href="#SourceHanSansSC-Regular-35"/>
      </g>
     </g>
    </g>
    <g id="ytick_9">
     <g id="line2d_21">
      <path d="M 383.25176 144.265774
L 673.67952 144.265774
" clip-path="url(#pe524c206eb)" style="fill: none; stroke: #e8ece7; stroke-width: 0.8; stroke-linecap: square"/>
     </g>
     <g id="line2d_22"/>
     <g id="text_16">
      <!-- 10 -->
      <g style="fill: #54655e" transform="translate(363.04176 148.643431) scale(0.11 -0.11)">
       <use xlink:href="#SourceHanSansSC-Regular-31"/>
       <use xlink:href="#SourceHanSansSC-Regular-30" x="55.499985"/>
      </g>
     </g>
    </g>
    <g id="ytick_10">
     <g id="line2d_23">
      <path d="M 383.25176 103.396402
L 673.67952 103.396402
" clip-path="url(#pe524c206eb)" style="fill: none; stroke: #e8ece7; stroke-width: 0.8; stroke-linecap: square"/>
     </g>
     <g id="line2d_24"/>
     <g id="text_17">
      <!-- 15 -->
      <g style="fill: #54655e" transform="translate(363.04176 107.774058) scale(0.11 -0.11)">
       <use xlink:href="#SourceHanSansSC-Regular-31"/>
       <use xlink:href="#SourceHanSansSC-Regular-35" x="55.499985"/>
      </g>
     </g>
    </g>
    <g id="ytick_11">
     <g id="line2d_25">
      <path d="M 383.25176 62.527029
L 673.67952 62.527029
" clip-path="url(#pe524c206eb)" style="fill: none; stroke: #e8ece7; stroke-width: 0.8; stroke-linecap: square"/>
     </g>
     <g id="line2d_26"/>
     <g id="text_18">
      <!-- 20 -->
      <g style="fill: #54655e" transform="translate(363.04176 66.904685) scale(0.11 -0.11)">
       <use xlink:href="#SourceHanSansSC-Regular-32"/>
       <use xlink:href="#SourceHanSansSC-Regular-30" x="55.499985"/>
      </g>
     </g>
    </g>
    <g id="ytick_12">
     <g id="line2d_27">
      <path d="M 383.25176 21.657656
L 673.67952 21.657656
" clip-path="url(#pe524c206eb)" style="fill: none; stroke: #e8ece7; stroke-width: 0.8; stroke-linecap: square"/>
     </g>
     <g id="line2d_28"/>
     <g id="text_19">
      <!-- 25 -->
      <g style="fill: #54655e" transform="translate(363.04176 26.035312) scale(0.11 -0.11)">
       <use xlink:href="#SourceHanSansSC-Regular-32"/>
       <use xlink:href="#SourceHanSansSC-Regular-35" x="55.499985"/>
      </g>
     </g>
    </g>
    <g id="text_20">
     <!-- 实测最大滞后（更新数） -->
     <g style="fill: #54655e" transform="translate(356.751135 178.831088) rotate(-90) scale(0.1 -0.1)">
      <defs>
       <path id="SourceHanSansSC-Regular-6700" d="M 1587 3610
L 1587 4064
L 4819 4064
L 4819 3610
L 1587 3610
z
M 1587 4384
L 1587 4832
L 4819 4832
L 4819 4384
L 1587 4384
z
M 5299 5171
L 1126 5171
L 1126 3270
L 5299 3270
L 5299 5171
z
M 2534 2509
L 2534 2080
L 1370 2080
L 1370 2509
L 2534 2509
z
M 301 275
L 346 -154
L 2534 109
L 2534 -512
L 2995 -512
L 2995 166
L 3341 211
L 3334 602
L 2995 563
L 2995 2509
L 6074 2509
L 6074 2912
L 314 2912
L 314 2509
L 928 2509
L 928 333
L 301 275
z
M 5523 2112
L 3245 2112
L 3245 1715
L 3622 1715
L 3507 1683
C 3693 1210 3962 794 4294 454
C 3942 186 3546 -13 3142 -141
C 3226 -224 3334 -384 3386 -493
C 3814 -339 4230 -122 4608 173
C 4966 -122 5395 -346 5882 -486
C 5946 -378 6067 -198 6170 -109
C 5702 6 5286 198 4934 461
C 5350 864 5690 1376 5882 2010
L 5613 2131
L 5523 2112
z
M 3923 1715
L 5325 1715
C 5158 1338 4909 1005 4614 723
C 4320 1005 4090 1338 3923 1715
z
M 2534 1722
L 2534 1267
L 1370 1267
L 1370 1722
L 2534 1722
z
M 2534 909
L 2534 512
L 1370 378
L 1370 909
L 2534 909
z
" transform="scale(0.015625)"/>
       <path id="SourceHanSansSC-Regular-5927" d="M 3469 5370
L 2950 5370
C 2944 4864 2950 4218 2854 3539
L 397 3539
L 397 3046
L 2771 3046
C 2515 1830 1875 589 275 -102
C 410 -205 563 -378 640 -506
C 2202 218 2899 1446 3206 2688
C 3712 1222 4531 90 5773 -493
C 5856 -358 6016 -154 6138 -51
C 4890 467 4051 1632 3603 3046
L 6029 3046
L 6029 3539
L 3366 3539
C 3456 4211 3462 4851 3469 5370
z
" transform="scale(0.015625)"/>
      </defs>
      <use xlink:href="#SourceHanSansSC-Regular-5b9e"/>
      <use xlink:href="#SourceHanSansSC-Regular-6d4b" x="99.999985"/>
      <use xlink:href="#SourceHanSansSC-Regular-6700" x="199.999969"/>
      <use xlink:href="#SourceHanSansSC-Regular-5927" x="299.999954"/>
      <use xlink:href="#SourceHanSansSC-Regular-6ede" x="399.999939"/>
      <use xlink:href="#SourceHanSansSC-Regular-540e" x="499.999924"/>
      <use xlink:href="#SourceHanSansSC-Regular-ff08" x="599.999908"/>
      <use xlink:href="#SourceHanSansSC-Regular-66f4" x="699.999893"/>
      <use xlink:href="#SourceHanSansSC-Regular-65b0" x="799.999878"/>
      <use xlink:href="#SourceHanSansSC-Regular-6570" x="899.999863"/>
      <use xlink:href="#SourceHanSansSC-Regular-ff09" x="999.999847"/>
     </g>
    </g>
   </g>
   <g id="patch_6">
    <path d="M 396.453022 226.00452
L 484.461434 226.00452
L 484.461434 62.527029
L 396.453022 62.527029
z
" clip-path="url(#pe524c206eb)" style="fill: #9ba5ab"/>
   </g>
   <g id="patch_7">
    <path d="M 572.469846 226.00452
L 660.478258 226.00452
L 660.478258 193.309022
L 572.469846 193.309022
z
" clip-path="url(#pe524c206eb)" style="fill: #246650"/>
   </g>
   <g id="text_21">
    <!-- 20.00 -->
    <g style="fill: #233b34" transform="translate(427.967384 56.527029) scale(0.1 -0.1)">
     <use xlink:href="#SourceHanSansSC-Regular-32"/>
     <use xlink:href="#SourceHanSansSC-Regular-30" x="55.499985"/>
     <use xlink:href="#SourceHanSansSC-Regular-2e" x="110.999969"/>
     <use xlink:href="#SourceHanSansSC-Regular-30" x="138.799957"/>
     <use xlink:href="#SourceHanSansSC-Regular-30" x="194.299942"/>
    </g>
   </g>
   <g id="text_22">
    <!-- 4.00 -->
    <g style="fill: #233b34" transform="translate(606.759208 187.309022) scale(0.1 -0.1)">
     <use xlink:href="#SourceHanSansSC-Regular-34"/>
     <use xlink:href="#SourceHanSansSC-Regular-2e" x="55.499985"/>
     <use xlink:href="#SourceHanSansSC-Regular-30" x="83.299973"/>
     <use xlink:href="#SourceHanSansSC-Regular-30" x="138.799957"/>
    </g>
   </g>
  </g>
 </g>
 <defs>
  <clipPath id="p3d7b3c296a">
   <rect x="51.74" y="21.657656" width="290.42776" height="204.346864"/>
  </clipPath>
  <clipPath id="pe524c206eb">
   <rect x="383.25176" y="21.657656" width="290.42776" height="204.346864"/>
  </clipPath>
 </defs>
</svg>
